<?xml version="1.0" encoding="UTF-8"?>
<svg xmlns="http://www.w3.org/2000/svg" xmlns:xlink="http://www.w3.org/1999/xlink" version="1.1" width="512" height="512" x="0" y="0" viewBox="0 0 512 512" style="enable-background:new 0 0 512 512" xml:space="preserve" fill-rule="evenodd" class="">
  <g>
    <path d="M400 290v84c1 1 1 1 0 1-2 49-29 82-66 103-23 13-51 22-78 28 7 0 14 1 21 1 36 0 68-11 95-30 26-19 45-46 55-81 5-16 8-35 8-55-1-14-5-27-12-37-6-6-13-11-23-14z" fill="#ff9f91" opacity="1" data-original="#000000" class=""/>
    <g fill-rule="nonzero">
      <path d="M300 11c-6-4-13-7-20-8-13-4-27-4-41-1-28 6-54 25-66 55v1c-1 0-7 15-4 62h8c2-42 38-55 72-68 27-10 51-19 51-41zM301 42c6 10 15 26 22 44 4 11 7 24 7 36h7c7-48-3-80-22-100h-1c-2 8-7 15-13 20z" fill="#ff9f91" opacity="1" data-original="#000000" class=""/>
      <path d="M335 139v-3h-13c-4 0-7-4-7-8 1-11-2-25-6-37-6-17-14-32-20-40-10 6-22 10-35 15-31 11-64 24-62 61v1c0 4-4 7-8 7h-13c3 28 13 52 27 71 15 18 34 30 55 30 7 0 13-1 19-3 5-2 10-5 15-8v-2c0-18 5-34 14-48 8-12 19-22 32-27 1-3 2-6 2-9zm-51-70c-8 4-17 7-25 10-3 1-7 2-11 4-12 5-30 12-38 23-4 6-5 13-5 20 1 0 1 1 1 2 0 10-9 19-19 21 4 17 11 34 22 48s26 25 44 25c5 0 10-1 14-3 2 0 4-1 6-2 1-17 7-34 16-49 6-9 13-16 21-22-6-5-9-11-8-19 0-10-3-22-6-32-3-8-7-18-12-26z" fill="#ff9f91" opacity="1" data-original="#000000" class=""/>
    </g>
    <path d="M177 120c2-42 38-55 72-68 27-10 51-19 51-41-6-4-13-7-20-8-13-4-27-4-41-1-28 6-54 25-66 55v1c-1 0-7 15-4 62zM301 42c6 10 15 26 22 44 4 11 7 24 7 36h7c7-48-3-80-22-100h-1c-2 8-7 15-13 20zM342 161c-9 3-17 8-24 16-2 2-3 4-5 6-7 11-11 25-11 40v5c1 16 7 31 16 41 10 12 24 19 39 19 11 0 22-4 31-12h1c2-2 4-4 6-7 10-11 17-28 17-46s-7-35-17-46c-10-12-23-19-38-19-5 0-10 1-15 2zM289 241c-4 2-8 4-12 5-8 3-16 4-24 4-9 0-18-1-26-5 28 38 51 45 74 52 3 1 6 2 10 3l1 1c7 2 16 4 23 3 3 0 5-1 8-3-14-3-26-11-36-22-9-10-15-23-18-38zM239 325c-17-17-31-39-40-59-7 6-18 14-37 19-1 1-2 1-3 1-13 4-30 7-52 8 0 0-39 2-27 62 4 22 10 45 15 68 2 11 5 21 7 33 3 12 11 23 22 31 10 8 23 14 35 13h1c55-1 119-8 167-36 24-14 43-33 53-59-23 24-57 42-92 51-22 6-44 8-65 6-21-3-40-10-54-23-18-15-28-39-26-72 0-4 3-7 7-7s7 4 7 8c-1 28 7 48 21 60 12 11 29 17 47 19 9 1 19 1 29 1-10-42 14-79 28-95-16-5-30-16-43-29zM173 266c13-6 19-12 21-15v-29c-3-2-5-5-7-7s-3-4-4-6c-2 17-5 41-10 57z" fill="#ff9f91" opacity="1" data-original="#000000" class=""/>
    <path d="M268 447c6-1 11-2 17-4 44-11 86-38 101-72v-76c-8 5-17 7-27 8-4 10-13 15-22 16-10 1-21-1-30-5-3-1-7-2-11-3-26-8-54-17-88-66v7c9 20 23 44 41 63 14 14 31 25 48 27l-1 7 1-7c4 1 7 4 7 8-1 2-2 4-3 5-4 4-45 44-33 92z" fill="#ff9f91" opacity="1" data-original="#000000" class=""/>
  </g>
</svg>
