<?xml version="1.0" encoding="UTF-8"?>
<svg xmlns="http://www.w3.org/2000/svg" xmlns:xlink="http://www.w3.org/1999/xlink" version="1.1" width="512" height="512" x="0" y="0" viewBox="0 0 64 64" style="enable-background:new 0 0 512 512" xml:space="preserve">
  <g>
    <path d="M54.62 38.01c1.46 1.27 2.21 2.67 2.21 4.14 0 5.53-10.91 9.86-24.83 9.86S7.17 47.68 7.17 42.15c0-1.47.75-2.87 2.21-4.14C4.07 39.89 1 42.38 1 44.91c0 5.52 14.2 10.18 31 10.18s31-4.66 31-10.18c0-2.53-3.07-5.01-8.38-6.9z" fill="#ff9a8b" opacity="1" data-original="#000000"/>
    <path d="M12.27 41.7c0 2.68 8.1 5.66 19.73 5.66s19.73-2.98 19.73-5.66c0-1.1-1.34-2.25-3.72-3.22.02.13.03.26.03.39 0 3.43-7.04 6.11-16.04 6.11s-16.04-2.68-16.04-6.11c0-.13.01-.26.03-.39-2.38.97-3.72 2.12-3.72 3.22z" fill="#ff9a8b" opacity="1" data-original="#000000"/>
    <path d="M32 41.14c6.42 0 10.9-1.88 10.9-3.56 0-.61-.61-1.26-1.7-1.84-.25 2.12-4.12 3.7-9.2 3.7s-8.95-1.57-9.2-3.7c-1.09.58-1.7 1.22-1.7 1.84 0 1.68 4.48 3.56 10.9 3.56zM32 31.79c4.17 0 7.55-3.39 7.55-7.55 0-2.11-1.3-4.13-2.95-6.68-1.45-2.25-3.22-4.99-4.61-8.63-1.39 3.64-3.16 6.38-4.61 8.63-1.65 2.56-2.95 4.57-2.95 6.68 0 4.17 3.39 7.55 7.55 7.55zM45.81 25.66c1.41-.74 3.02-.43 4.2-.21.52.1 1 .19 1.38.18.65-.02 1-.5 1.14-.79.34-.68.3-1.57-.11-2.16-.37-.53-.99-.8-1.81-.8-.16 0-.32.01-.49.03-2.23.26-3.57 2.18-4.31 3.74zM12.61 25.63c.37 0 .85-.08 1.38-.18.62-.12 1.36-.26 2.12-.26.69 0 1.41.11 2.08.47-.74-1.56-2.08-3.48-4.31-3.74-1.07-.12-1.86.14-2.3.77-.41.59-.46 1.48-.11 2.16.15.29.49.77 1.14.79zM47.84 16.5c.21-.16.32-.67.12-1.16-.11-.29-.41-.73-1.11-.73-.07 0-.15 0-.24.02-.91.11-1.5 1.48-1.84 2.69.72-.4 1.45-.5 2.05-.57.44-.05.81-.1 1.02-.25z" fill="#ff9a8b" opacity="1" data-original="#000000"/>
  </g>
</svg>
