<?xml version="1.0" encoding="UTF-8"?>
<svg xmlns="http://www.w3.org/2000/svg" xmlns:xlink="http://www.w3.org/1999/xlink" version="1.1" width="512" height="512" x="0" y="0" viewBox="0 0 512 512" style="enable-background:new 0 0 512 512" xml:space="preserve">
  <g>
    <path d="m310.431 423.845-20.862-4.173a8 8 0 0 0-9.569 7.845V432a8 8 0 0 1-4.422 7.155l-29.535 14.768a14.436 14.436 0 0 0 11.818 26.316l58.375-23.349c17.833-12.155 53.756-46.673 68.511-61.087a24.125 24.125 0 0 0 7.216-17.309c-.405-73.217-4.144-115.325-12.122-136.535-5.049-13.422-11.014-16.837-19.841-17.686V376a8 8 0 0 1-2.343 5.657l-40 40a8.007 8.007 0 0 1-7.226 2.188ZM166.075 230.815c-8.682 8.2-13.383 25.414-14 51.192a64.211 64.211 0 0 1 31.927.018V272a8 8 0 0 1 16 0v16.61a64.392 64.392 0 0 1 26.754 30.041c8.144-2.241 13.938-7.279 17.614-15.323a42.472 42.472 0 0 0 3.63-15.363 8.016 8.016 0 0 1 8-7.946h.036A7.984 7.984 0 0 1 264 288c0 8.551-2.877 21.95-11.614 32.422A294.91 294.91 0 0 1 268 320q6.075 0 12 .249V191.421a56.349 56.349 0 0 1-8 .579h-16a56.14 56.14 0 0 1-8-.581V208a8 8 0 0 1-5.47 7.59c-1.03.343-25.519 8.41-50.53 8.41-9.2 0-18.71 0-25.925 6.815Z" fill="#ff9a8b" opacity="1" data-original="#000000"/>
    <path d="M232.148 64a8 8 0 0 1 7.441 5.469c.147.435 15.407 44.712 51.382 59.1A8 8 0 0 1 296 136v185.373c17.852 1.779 34.175 5.276 48 10.307V136q0-.285.021-.57c.032-.481 3.05-49.4-25.042-79.488C304.148 40.056 282.958 32 256 32a8.137 8.137 0 0 1-.883-.049c-.271-.031-29-2.873-47.32 13.6C197.315 54.978 192 69.26 192 88c0 .216.29 20.161 12.567 34.371l19.942-53.18A7.958 7.958 0 0 1 232.148 64Z" fill="#ff9a8b" opacity="1" data-original="#000000"/>
    <path d="M272 176a40.271 40.271 0 0 0 8-.805v-33.979c-23.809-11.44-38.938-32.792-47.309-48.275l-16.657 44.418A40.041 40.041 0 0 0 256 176ZM183.745 389.334C168.364 380.13 152 365.327 152 344c0-15.266-4.034-30.8-7.684-41.725a47.981 47.981 0 0 0 39.429 87.059ZM258.112 430l-59.557-29.778a63.833 63.833 0 0 1-44.248 6.288 23.9 23.9 0 0 0 10.96 11.179L227.9 449a30.09 30.09 0 0 1 10.993-9.391ZM266.721 416.417a24 24 0 0 1 25.985-12.435l16.665 3.333L344 372.687v-23.838C324.383 340.546 297.661 336 268 336a257.208 257.208 0 0 0-36.255 2.467c.158 1.825.255 3.668.255 5.533a63.8 63.8 0 0 1-19.068 45.522ZM168 296a48.019 48.019 0 0 0-8.636.793C163.8 309.9 168 326.853 168 344c0 17.528 19.728 29.912 31.853 35.866A47.971 47.971 0 0 0 168 296Z" fill="#ff9a8b" opacity="1" data-original="#000000"/>
  </g>
</svg>
