<?xml version="1.0" encoding="UTF-8"?>
<svg xmlns="http://www.w3.org/2000/svg" xmlns:xlink="http://www.w3.org/1999/xlink" version="1.1" width="512" height="512" x="0" y="0" viewBox="0 0 512 512" style="enable-background:new 0 0 512 512" xml:space="preserve">
  <g>
    <path d="m149.177 306.609 1.751-23.991a27.114 27.114 0 0 1 27.042-25.14h3.749l-5.449 20.463a8 8 0 0 0 .812 6.077l1.791 3.082a112.448 112.448 0 0 1 13.152 35.179 20.088 20.088 0 0 0-5.879-1.408 19.8 19.8 0 0 0-13.632 3.867l-8.924-8.476a33.917 33.917 0 0 0-14.658-8.21 7.938 7.938 0 0 0 .245-1.443zm6.929 126.369a24.454 24.454 0 0 1-27.341-28.878l6.56-33.847a67.535 67.535 0 0 0 29.128 24.272l64.929 28.365zM219 479.049l3.2-39.019 35.149-4.839c.046-.006.089-.018.134-.025l35.034 15.305a59.891 59.891 0 0 0 24.09 5.037h.026a60.017 60.017 0 0 0 57.417-42.026l.284-.9 2.98 67.366zm154.261-116a7.935 7.935 0 0 0-.873 2.752L358.8 408.645a44.074 44.074 0 0 1-42.167 30.863h-.019a43.986 43.986 0 0 1-17.691-3.7l-128.065-55.945a51.7 51.7 0 0 1-23.944-21.186L128.5 327.535a.294.294 0 0 1 .063-.376 17.98 17.98 0 0 1 24.007.7l14.173 13.462a8 8 0 0 0 10.786.212l4.269-3.746a4 4 0 0 1 5.75.493l8.294 10.267c.02.025.044.045.064.07a7.863 7.863 0 0 0 .568.615c.041.041.081.082.123.122a8.03 8.03 0 0 0 .7.585c.046.034.094.066.141.1a7.693 7.693 0 0 0 .727.461c.028.016.054.034.083.049a7.735 7.735 0 0 0 .84.391c.029.012.055.028.083.039L306.55 392.65a8 8 0 0 0 10.485-4.933L346.2 300.05l46.852.593zm-165.708-44.778a128.5 128.5 0 0 0-14.845-39.206l-.124-.213 5.257-19.737 16.366 4.01a25.224 25.224 0 0 1 17.606 15.609l2.541 6.745a214.731 214.731 0 0 0-26.801 32.792zm38.066-21.428 2.381.908v55.016l-34.607-13.429a198.656 198.656 0 0 1 32.226-42.495zM264 358.976v-55.119l12.944 4.939c1.111.424 2.2.892 3.273 1.382A7.985 7.985 0 0 0 280 312v53.185zm32 12.418v-50.439l.01.009 1.7 1.66a55.729 55.729 0 0 1 15.274 26.569l-8.484 25.5zM195.972 84.334l-4.9 11.273a60.158 60.158 0 0 0-2.794 40.2l-3.747-2.039a23.855 23.855 0 0 1-10.5-11.54 66.166 66.166 0 0 1 37.049-87.692l5.213-2.014a78.907 78.907 0 0 1 34.562-5.022l.866.069a82.039 82.039 0 0 1 66.037 43.141c7.518 14.02 15.506 28.9 21.686 40.405a101.219 101.219 0 0 0 32.428 35.869l9.637 6.5a84.823 84.823 0 0 1 34.478 92.4 70.926 70.926 0 0 0-52.348-51.628l-30.111-7.189a35.939 35.939 0 0 1-27.1-40.907l2.905-17.31a8 8 0 0 0-7.89-9.324 130.526 130.526 0 0 1-82.912-29.805L208.4 81.355a8 8 0 0 0-12.43 2.979zm111.064 106.274-.9.951a35.863 35.863 0 0 1-44.084 6.392l-5.993-9.651a62.186 62.186 0 0 0 30.38-9.06l8.392-5.1a51.95 51.95 0 0 0 6.879 10.909 51.267 51.267 0 0 0 5.326 5.559zm-89.353-35.865-6.045-7.631a44.185 44.185 0 0 1-5.894-45.126l.665-1.528 1.937 1.6a146.594 146.594 0 0 0 83.7 33.162l-1.392 8.29a51.94 51.94 0 0 0-.361 14.665l-12.161 7.4a46.367 46.367 0 0 1-60.444-10.827zm37.386 57.637a51.856 51.856 0 0 0 62.7-9.837l2.88-3.051a51.586 51.586 0 0 0 9.159 3.136l30.111 7.188a55.039 55.039 0 0 1 39.681 70.171l-1.5 4.718-57.551-.727a7.951 7.951 0 0 0-7.692 5.474l-12.206 36.687a71.957 71.957 0 0 0-11.785-14.984l-1.707-1.659a71.523 71.523 0 0 0-24.518-15.648L249.9 281.35l-3.112-8.258a41.217 41.217 0 0 0-28.77-25.507l-23.949-5.869a6.818 6.818 0 0 0-.283-.065 7.98 7.98 0 0 0-1.833-.173H178.97a44.438 44.438 0 0 1 22.92-14.846zM66.521 160.986l.345-.23a19.255 19.255 0 0 1 24.3 2.406L96 168l4.153-4.745a19.255 19.255 0 0 1 26.157-2.636 24.59 24.59 0 0 1 9.69 19.562 24.591 24.591 0 0 1-9.229 19.2L96 224l-31.133-24.906A23.629 23.629 0 0 1 56 180.645a23.627 23.627 0 0 1 10.521-19.659z" fill="#ff9a8b" opacity="1" data-original="#000000"/>
  </g>
</svg>
